<svg width="24" height="24" viewBox="0 0 24 24" fill="none" xmlns="http://www.w3.org/2000/svg">
<path d="M12 12C12 12.2984 11.8815 12.5845 11.6705 12.7955C11.4595 13.0065 11.1734 13.125 10.875 13.125H4.5C4.20163 13.125 3.91548 13.0065 3.7045 12.7955C3.49353 12.5845 3.375 12.2984 3.375 12C3.375 11.7016 3.49353 11.4155 3.7045 11.2045C3.91548 10.9935 4.20163 10.875 4.5 10.875H10.875C11.1734 10.875 11.4595 10.9935 11.6705 11.2045C11.8815 11.4155 12 11.7016 12 12ZM4.5 7.125H16.875C17.1734 7.125 17.4595 7.00647 17.6705 6.7955C17.8815 6.58452 18 6.29837 18 6C18 5.70163 17.8815 5.41548 17.6705 5.2045C17.4595 4.99353 17.1734 4.875 16.875 4.875H4.5C4.20163 4.875 3.91548 4.99353 3.7045 5.2045C3.49353 5.41548 3.375 5.70163 3.375 6C3.375 6.29837 3.49353 6.58452 3.7045 6.7955C3.91548 7.00647 4.20163 7.125 4.5 7.125ZM9.375 16.875H4.5C4.20163 16.875 3.91548 16.9935 3.7045 17.2045C3.49353 17.4155 3.375 17.7016 3.375 18C3.375 18.2984 3.49353 18.5845 3.7045 18.7955C3.91548 19.0065 4.20163 19.125 4.5 19.125H9.375C9.67337 19.125 9.95952 19.0065 10.1705 18.7955C10.3815 18.5845 10.5 18.2984 10.5 18C10.5 17.7016 10.3815 17.4155 10.1705 17.2045C9.95952 16.9935 9.67337 16.875 9.375 16.875ZM21.7959 14.9541C21.6914 14.8492 21.5672 14.766 21.4305 14.7092C21.2937 14.6524 21.1471 14.6232 20.9991 14.6232C20.851 14.6232 20.7044 14.6524 20.5676 14.7092C20.4309 14.766 20.3067 14.8492 20.2022 14.9541L18.375 16.7812V10.5C18.375 10.2016 18.2565 9.91548 18.0455 9.7045C17.8345 9.49353 17.5484 9.375 17.25 9.375C16.9516 9.375 16.6655 9.49353 16.4545 9.7045C16.2435 9.91548 16.125 10.2016 16.125 10.5V16.7812L14.2959 14.9513C14.0846 14.7399 13.7979 14.6212 13.4991 14.6212C13.2002 14.6212 12.9135 14.7399 12.7022 14.9513C12.4908 15.1626 12.3721 15.4492 12.3721 15.7481C12.3721 16.047 12.4908 16.3337 12.7022 16.545L16.4522 20.295C16.5567 20.3999 16.6809 20.4831 16.8176 20.5399C16.9544 20.5967 17.101 20.6259 17.2491 20.6259C17.3971 20.6259 17.5437 20.5967 17.6805 20.5399C17.8172 20.4831 17.9414 20.3999 18.0459 20.295L21.7959 16.545C22.0069 16.334 22.1254 16.0479 22.1254 15.7495C22.1254 15.4512 22.0069 15.165 21.7959 14.9541Z" fill="#4BACC2"/>
</svg>
