<svg width="103" height="37" viewBox="0 0 103 37" fill="none" xmlns="http://www.w3.org/2000/svg">
<path d="M50.379 30.066H50.7576C51.2252 30.066 51.5593 30.2322 51.5593 30.8084V31.1077C51.5593 31.5066 51.3255 31.7947 50.9579 31.7947H50.379V30.066ZM51.7152 34.1551C51.7152 34.7646 51.3255 34.9086 50.9914 34.9086H50.379V33.0359H51.0137C51.3588 33.0359 51.7152 33.313 51.7152 33.723V34.1551ZM53.1962 31.008V30.7199C53.1962 29.5009 52.3945 28.7141 51.1584 28.7141H48.7309V36.2495H51.3143C52.5392 36.2495 53.3632 35.5957 53.3632 34.3546V33.867C53.3632 33.1356 52.9066 32.5927 52.2496 32.3267C52.8287 32.1383 53.1962 31.4845 53.1962 31.008ZM46.2286 31.9056C45.4491 31.418 45.1262 31.2739 45.1262 30.7753C45.1262 30.2655 45.4045 30.066 45.8389 30.066C46.2509 30.066 46.6294 30.2212 46.9524 30.5868L47.7764 29.5341C47.253 28.9135 46.507 28.6032 45.7275 28.6032C44.5805 28.6032 43.545 29.3125 43.5784 30.8084C43.6006 31.8724 44.3245 32.5261 45.3601 33.1245C45.9947 33.5124 46.34 33.6786 46.34 34.2217C46.34 34.7202 45.9391 34.9086 45.5159 34.9086C45.0483 34.9086 44.6028 34.7202 44.2687 34.2438L43.3228 35.2633C43.8573 35.9836 44.6808 36.3604 45.605 36.3604C47.0415 36.3604 47.8432 35.4517 47.832 34.1773C47.8209 33.4015 47.4868 32.5815 46.2286 31.9056ZM41.7792 33.1134V31.7283H40.3316V30.1547H42.4361V28.7141H38.6835V36.2495H42.67V34.8201H40.3316V33.1134H41.7792ZM35.9115 33.8227C35.9115 34.543 35.4104 34.8201 34.7979 34.8201H34.4417V30.1547H34.9093C35.4549 30.1547 35.9115 30.4539 35.9115 31.1521V33.8227ZM32.8159 28.7141V36.2495H34.7979C36.3236 36.2495 37.5595 35.4849 37.5595 33.7895V31.1853C37.5595 29.4787 36.4683 28.7141 34.9093 28.7141H32.8159ZM30.033 33.3905L27.9617 28.7141H26.4251V36.2495H27.9284V31.6618L30.0107 36.2495H31.5473V28.7141H30.033V33.3905ZM22.2527 33.3351L22.7761 30.7087L23.2549 33.3351H22.2527ZM21.8741 28.6587L19.9031 36.2495H21.6737L21.9632 34.676H23.5333L23.8005 36.2495H25.5488L23.7114 28.6587H21.8741ZM15.2699 28.7141V36.2495H19.312V34.8201H16.918V28.7141H15.2699Z" fill="black"/>
<path d="M12.2409 9.11633H0.12561V12.1314H12.2409V9.11633Z" fill="black"/>
<path d="M12.2409 0.0707703H0.12561V3.08595H12.2409V0.0707703Z" fill="black"/>
<path d="M12.2409 4.59341H0.12561V7.6086H12.2409V4.59341Z" fill="black"/>
<path d="M15.2697 0.0708313V3.08602H22.2149L15.2697 9.99992V12.13L15.271 12.1313H17.4119L24.356 5.21863V12.1313H27.3849V3.08602V0.0708313H15.2697Z" fill="black"/>
<path d="M26.6889 23.5706C26.6889 24.1357 26.277 24.3795 25.7869 24.3795C25.2859 24.3795 24.8627 24.1468 24.8627 23.5706V18.1628H23.2034V23.5484C23.2034 25.0554 24.3727 25.809 25.7869 25.809C27.19 25.809 28.337 25.0444 28.337 23.5484V18.1628H26.6889V23.5706ZM17.8787 18.1628L17.1104 23.2381L16.5758 18.1628H14.939L16.0637 25.6982H17.8342L18.5915 21.0662L19.3821 25.6982H21.1193L22.2551 18.1628H20.6181L20.117 23.2713L19.3041 18.1628H17.8787Z" fill="black"/>
<path d="M27.4017 16.412H26.2993V17.5533H27.4017V16.412ZM25.2525 16.412H24.15V17.5533H25.2525V16.412Z" fill="black"/>
<path d="M101.994 22.5622V21.1769H100.546V19.6034H102.651V18.1628H98.8982V25.6982H102.885V24.2687H100.546V22.5622H101.994Z" fill="black"/>
<path d="M96.0066 21.2767H94.1803V18.1628H92.5322V25.6982H94.1803V22.7173H96.0066V25.6982H97.6546V18.1628H96.0066V21.2767Z" fill="black"/>
<path d="M89.8119 19.4594C90.3464 19.4594 90.6582 19.6588 90.9589 19.8915L91.6715 18.7612C91.1815 18.3069 90.6359 18.052 89.6671 18.052C88.3309 18.052 87.2729 18.8831 87.2729 20.2682V23.6038C87.2729 25.0665 88.3198 25.809 89.6783 25.809C90.6136 25.809 91.1705 25.5763 91.6382 25.1219L90.9811 24.047C90.725 24.2576 90.4132 24.4128 89.8565 24.4128C89.2997 24.4128 88.921 24.1025 88.921 23.5151V20.3791C88.921 19.8029 89.2106 19.4594 89.8119 19.4594Z" fill="black"/>
<path d="M84.819 21.3543C84.0394 20.8666 83.7165 20.7226 83.7165 20.224C83.7165 19.7142 83.9949 19.5147 84.4292 19.5147C84.8412 19.5147 85.2199 19.6699 85.5428 20.0356L86.3669 18.9828C85.8434 18.3623 85.0973 18.052 84.3179 18.052C83.1709 18.052 82.1353 18.7612 82.1686 20.2572C82.1909 21.321 82.9148 21.9748 83.9503 22.5732C84.5851 22.961 84.9303 23.1273 84.9303 23.6703C84.9303 24.1689 84.5294 24.3573 84.1062 24.3573C83.6386 24.3573 83.1931 24.1689 82.8591 23.6925L81.9683 24.7119C82.5027 25.4322 83.271 25.809 84.1953 25.809C85.6318 25.809 86.4337 24.9003 86.4225 23.6259C86.4114 22.8503 86.0773 22.0303 84.819 21.3543Z" fill="black"/>
<path d="M81.0975 18.1628H79.4495V25.6982H81.0975V18.1628Z" fill="black"/>
<path d="M75.987 22.7172H76.6774V24.2244C76.5104 24.3351 76.2764 24.3794 75.9981 24.3794C75.4525 24.3794 75.0628 24.0803 75.0628 23.5706V20.3126C75.0628 19.814 75.5081 19.4926 76.0316 19.4926C76.7554 19.4926 77.1005 19.681 77.5237 19.9359L78.0804 18.7169C77.546 18.3069 76.9224 18.052 75.9535 18.052C74.5282 18.052 73.4147 18.8388 73.4147 20.2682V23.6038C73.4147 25.0776 74.5282 25.809 75.9981 25.809C76.9558 25.809 77.7019 25.4432 78.3366 24.8449V21.3764H75.987V22.7172Z" fill="black"/>
<path d="M71.6123 22.5622C72.0911 22.3184 72.414 21.7088 72.414 20.7559V20.3016C72.414 18.8278 71.4897 18.1628 70.1646 18.1628H67.7593V25.6982H69.4073V22.961H70.0978L70.9107 25.6982H72.6589L71.6123 22.5622ZM70.7548 20.911C70.7548 21.3985 70.5098 21.6203 70.2537 21.6424H69.4073V19.6034H70.0421C70.4541 19.6034 70.7548 19.8472 70.7548 20.3126V20.911Z" fill="black"/>
<path d="M65.9713 22.5622V21.1769H64.5237V19.6034H66.6283V18.1628H62.8756V25.6982H66.8622V24.2687H64.5237V22.5622H65.9713Z" fill="black"/>
<path d="M60.7839 21.7754C61.363 21.587 61.7304 20.9332 61.7304 20.4567V20.1685C61.7304 18.9497 60.9286 18.1628 59.6926 18.1628H57.265V25.6982H59.8484C61.0734 25.6982 61.8974 25.0444 61.8974 23.8032V23.3157C61.8974 22.5843 61.4409 22.0413 60.7839 21.7754ZM58.9131 19.5147H59.2917C59.7593 19.5147 60.0934 19.681 60.0934 20.2572V20.5564C60.0934 20.9553 59.8596 21.2435 59.4922 21.2435H58.9131V19.5147ZM60.2493 23.6038C60.2493 24.2132 59.8596 24.3573 59.5255 24.3573H58.9131V22.4845H59.5478C59.893 22.4845 60.2493 22.7616 60.2493 23.1716V23.6038Z" fill="black"/>
<path d="M49.7705 18.1628V25.6982H51.4186V20.8667L52.3763 24.1468H53.3562L54.3473 20.8667V25.6982H55.9954V18.1628H54.158L52.8774 22.0303L51.6302 18.1628H49.7705Z" fill="black"/>
<path d="M47.9187 22.5622V21.1769H46.4711V19.6034H48.5757V18.1628H44.8229V25.6982H48.8095V24.2687H46.4711V22.5622H47.9187Z" fill="black"/>
<path d="M40.6772 19.6034V25.6982H42.3254V19.6034H43.9622V18.1628H34.8497V19.6034H36.509V25.6982H38.1571V19.6034H40.6772Z" fill="black"/>
<path d="M33.4257 22.5622C33.9047 22.3184 34.2275 21.7088 34.2275 20.7559V20.3016C34.2275 18.8278 33.3033 18.1628 31.9781 18.1628H29.5729V25.6982H31.221V22.961H31.9113L32.7242 25.6982H34.4726L33.4257 22.5622ZM32.5683 20.911C32.5683 21.3985 32.3233 21.6203 32.0672 21.6424H31.221V19.6034H31.8557C32.2676 19.6034 32.5683 19.8472 32.5683 20.3126V20.911Z" fill="black"/>
<path d="M96.5903 28.7141L95.1649 31.9388V28.7141H93.517V36.2495H95.1649V33.9446L95.5213 33.4127L96.7239 36.2495H98.5946L96.6348 32.2602L98.4499 28.7141H96.5903Z" fill="black"/>
<path d="M91.6686 33.1134V31.7283H90.221V30.1547H92.3256V28.7141H88.573V36.2495H92.5594V34.8201H90.221V33.1134H91.6686Z" fill="black"/>
<path d="M85.6892 31.828H83.863V28.7141H82.215V36.2495H83.863V33.2686H85.6892V36.2495H87.3373V28.7141H85.6892V31.828Z" fill="black"/>
<path d="M78.0736 30.1547V36.2495H79.7216V30.1547H81.3585V28.7141H76.4144V30.1547H78.0736Z" fill="black"/>
<path d="M73.2477 28.6032H73.0696C71.6666 28.6032 70.5753 29.4344 70.5753 30.875V34.1551C70.5753 35.6179 71.6108 36.3604 73.0807 36.3604H73.2477C74.7065 36.3604 75.7309 35.5957 75.7309 34.1551V30.875C75.7309 29.4565 74.662 28.6032 73.2477 28.6032ZM74.0829 34.1219C74.0829 34.6538 73.7488 34.9308 73.2477 34.9308H73.0807C72.5463 34.9308 72.2233 34.6649 72.2233 34.1219V30.9193C72.2233 30.3541 72.5907 30.0438 73.0696 30.0438H73.2477C73.7266 30.0438 74.0829 30.3652 74.0829 30.9303V34.1219Z" fill="black"/>
<path d="M69.4074 28.7141H67.7593V36.2495H69.4074V28.7141Z" fill="black"/>
<path d="M62.8756 28.7141V36.2495H66.9177V34.8201H64.5237V28.7141H62.8756Z" fill="black"/>
<path d="M60.7838 32.3267C61.3629 32.1383 61.7303 31.4845 61.7303 31.008V30.7199C61.7303 29.5009 60.9286 28.7141 59.6925 28.7141H57.265V36.2495H59.8484C61.0733 36.2495 61.8973 35.5957 61.8973 34.3546V33.867C61.8973 33.1356 61.4408 32.5927 60.7838 32.3267ZM58.9131 30.066H59.2916C59.7593 30.066 60.0934 30.2322 60.0934 30.8085V31.1077C60.0934 31.5066 59.8595 31.7947 59.4921 31.7947H58.9131V30.066ZM60.2493 34.1551C60.2493 34.7646 59.8595 34.9086 59.5255 34.9086H58.9131V33.0359H59.5478C59.893 33.0359 60.2493 33.313 60.2493 33.723V34.1551Z" fill="black"/>
<path d="M55.9954 28.7141H54.3473V36.2495H55.9954V28.7141Z" fill="black"/>
</svg>
